<?xml version="1.0" encoding="UTF-8"?>
<svg version="1.1" viewBox="0 0 1024 1024" width="1280" height="1280" xmlns="http://www.w3.org/2000/svg">
<path transform="translate(495,24)" d="m0 0h34l33 2 38 5 33 7 29 8 28 10 26 11 26 13 27 16 15 10 14 10 13 10 11 9 15 13 13 12 22 22 7 8 12 14 12 15 13 18 10 15 15 25 14 27 9 20 11 29 9 30 7 30 5 32 3 30 1 20v34l-2 33-5 38-7 33-8 29-10 28-11 26-13 26-16 27-10 15-10 14-10 13-9 11-13 15-12 13-23 23-8 7-15 13-17 13-15 11-15 10-20 12-22 12-28 13-27 10-18 6-26 7-36 7-32 4-33 2h-34l-33-2-32-4-36-7-29-8-24-8-27-11-29-14-24-14-19-12-28-21-11-9-14-12-15-14-22-22-7-8-12-14-12-15-13-18-10-15-15-25-14-27-9-20-11-29-9-30-7-30-5-32-3-30-1-20v-34l2-33 5-38 7-33 8-29 10-28 11-26 13-26 16-27 10-15 10-14 10-13 9-11 13-15 12-13 22-22 8-7 14-12 15-12 18-13 15-10 25-15 27-14 20-9 29-11 30-9 30-7 32-5 30-3z" fill="#828282"/>
<path transform="translate(315,322)" d="m0 0h20l20 2 19 4 19 7 16 9 12 9 14 12 10 11 11 15 10 18 9 20 7 23 5 26 2 16 1 25-1 8h-271l1 23 3 19 5 16 8 16 8 11 9 10 14 10 15 8 15 5 17 3h35l19-4 15-6 14-9 12-11 8-11 6-15 2-8h60l-5 21-8 19-9 16-9 11-15 15-15 11-18 10-19 7-20 5-15 2-15 1h-15l-25-2-24-5-19-7-16-8-11-7-14-11-13-13-10-13-9-15-9-19-7-21-5-21-4-28-1-14v-19l2-22 5-25 7-21 9-20 9-15 12-16 12-13 10-9 14-10 16-9 18-8 23-6 12-2z" fill="#fff"/>
<path transform="translate(514,323)" d="m0 0h80l14 20 17 25 26 38 11 16 13 19 9 13 4-5 12-16 13-19 12-16 11-16 13-18 12-17 13-18 4-6h75l-4 7-14 18-28 38-16 21-14 19-16 21-14 19-16 21-7 11 12 16 12 17 13 18 12 17 26 36 12 17 26 36 12 17 13 18 7 10v2h-79l-8-11-10-15-29-43-16-24-27-40-15-22-1-1-12 18-29 43-8 12-29 43-8 12-19 28h-75l2-5 13-18 12-17 13-18 12-17 13-18 14-20 13-18 12-17 13-18 12-17 11-15-1-4-13-18-70-95-13-18-12-16-13-18-8-11z" fill="#fff"/>
<path transform="translate(311,375)" d="m0 0h20l18 3 14 5 17 9 11 9 11 11 10 15 8 18 5 20 1 12h-208v-9l4-18 6-16 8-15 8-10 6-7 14-11 17-9 17-5z" fill="#828282"/>
</svg>
