<?xml version="1.0" encoding="UTF-8"?>
<svg version="1.1" viewBox="0 0 2048 2048" width="1280" height="1280" xmlns="http://www.w3.org/2000/svg">
<path transform="translate(724,255)" d="m0 0h872l22 2 22 5 17 6 20 9 14 8 13 9 13 10 10 9 13 13 13 17 8 13 8 16 11 25 15 37 16 39 17 41 14 34 16 39 3 7 10-2 68-19 23-4h20l14 3 12 5 11 8 9 8 9 13 6 13 5 17v78l-5 19-7 16-7 11-9 11-10 9-11 7-15 7-19 5-20 2 6 12 10 27 14 42 13 54 7 41 4 30 3 51v447l-2 18-4 14-5 12-8 13-11 12-11 10-16 9-17 6-21 3h-133l-19-3-16-6-14-8-11-9-8-8-9-13-8-16-4-13-2-13-1-36v-78l1-2h-537l-14 34-8 20-11 22-12 22-12 21-14 20-12 17-13 18-12 13-7 8-9 10-7 8-11 12-16 15-8 7-13 12-14 11-19 14-18 13-18 11-27 16-15 8-28 13-18 8-42 15-25 7-37 9-38 6-25 3-33 2h-44l-35-2-49-7-20-4-43-11-24-8-32-12-26-12-29-14-25-15-21-13-38-28-11-9-11-10-8-7-15-14-9-8-7-8-7-7-7-8-11-12-9-11-12-16-14-19-10-15-19-32-10-18-16-34-8-20-13-36-10-37-6-26-5-32-4-29-2-24v-63l4-38 6-40 7-31 8-30 12-35 8-21 17-36 8-16 14-24 14-23 13-18 10-13 9-12 9-11 16-17 7-8 12-13 14-13 8-7 10-9 14-12 16-12 20-14 16-11 1-62 2-15 5-16 7-13 9-11 11-9 10-6 16-5 5-1h22l25 5 69 19 5 1 20-48 15-37 17-41 15-37 25-60 11-21 14-19 9-10 15-15 17-13 14-9 16-9 11-5 15-6 28-7zm42 84-14 2-18 6-15 8-13 9-12 11-10 11-9 16-9 20-17 42-19 46-18 44-14 34-10 25v1l8 1 51 3 50 7 28 6 41 11 42 15 21 9 39 19 29 17 21 13 13 10 15 11 13 10 11 9 15 14 8 7 13 12 10 10 7 8 5 4h718l15-2 12-5 10-9 5-7 3-10v-15l-4-15-15-37-16-39-19-46-13-32-19-46-15-37-17-41-13-32-12-29-10-19-9-11-11-11-14-10-14-8-15-6-19-4zm-204 460-29 3-30 5-31 8-29 10-21 9-25 12-17 10-19 12-30 23-13 12-8 7-9 8-7 8-13 14-11 14-10 13-9 13-13 21-12 22-12 26-11 30-8 29-5 24-4 28-2 29v31l2 27 5 34 7 30 8 26 11 28 14 29 9 16 12 19 11 15 13 17 11 12 7 8 11 12 8 7 15 14 13 10 19 14 14 9 22 13 16 8 26 12 34 12 37 9 42 6 15 1h46l24-2 33-5 40-10 33-12 24-11 20-10 28-17 17-13 16-12 13-12 8-7 11-10 7-8 12-13 9-11 14-19 7-10 12-20 8-14 14-29 9-24 7-21 8-32 4-24 2-14 2-31v-29l-3-36-5-31-8-32-8-24-10-25-14-29-16-27-12-17-9-12-11-14-14-15-11-12-15-14-8-7-18-14-14-10-22-14-23-13-28-13-36-13-31-8-26-5-24-3-13-1zm957 216-16 2-8 4-7 6-5 8-2 7-1 8v124l2 12 5 10 9 8 9 4 16 2h199l64-1 11-4 9-7 6-10 2-9v-134l-4-13-9-10-8-4-7-2-10-1z" fill="#212869"/>
<path transform="translate(582,888)" d="m0 0h14l8 4 6 7 2 5 1 7v63l-1 5 12-6 24-14 17-9 6-2h8l8 3 6 5 4 8 1 3v7l-3 8-7 8-13 8-25 14-24 14-11 6h-2v130l5-2 24-14 52-30 17-10 12-7v-91l3-8 4-5 8-5 11-1 9 3 5 5 5 8 1 5 1 34v27l14-7 15-9 24-14 12-6 3-1h9l8 3 5 4 5 9 1 10-3 9-6 7-15 9-28 16-19 11 4 3 29 17 16 10 7 6 4 8v12l-4 8-7 6-10 3-8-1-9-4-21-12-22-13-24-14-4-1-23 13-24 14-28 16-24 14-10 5 5 4 26 15 27 16 21 12 24 14 6 4 5-2 26-15 25-15 19-11 6-2h12l8 4 6 7 2 6v12l-4 8-9 7-27 16-17 10-3 2 20 12 26 15 16 10 6 7 3 7v8l-3 8-6 7-6 3-5 1h-7l-10-3-26-15-27-16-5-3-2 62-3 9-6 7-6 3-5 1h-7l-8-3-6-5-5-10v-91l-22-13-52-30-24-14-10-6h-2v124l1 5 17 9 21 12 25 14 11 7 7 7 3 8v8l-4 9-8 8-8 2h-8l-12-5-27-15-17-10-1 1v66l-2 11-7 9-8 4h-13l-7-3-8-9-2-7-1-73-24 13-24 14-11 4h-8l-8-3-5-5-5-8-1-3v-8l3-8 5-6 13-8 25-14 21-12 18-10 1-1 1-126-6 2-23 13-28 16-23 13-26 15-7 4v90l-5 10-7 6-7 2h-8l-8-3-6-5-5-10-1-16v-45l-5 2-22 12-17 10-16 9-9 3-7-1-8-3-6-7-4-9v-7l3-8 7-8 16-10 24-14 19-11h2l-3-3-18-10-13-8-15-9-10-9-3-8v-9l4-9 5-5 7-4 8-1 10 3 16 9 22 13 32 19 3 2 5-1 28-16 24-14 26-15 24-14 5-3h2l-3-3-20-11-24-14-25-14-24-14-14-8h-5l-13 8-51 30-9 5-8 2-10-1-7-4-5-6-3-7v-11l4-8 8-7 22-13 20-12 6-4h2v-2l-6-2-28-16-19-11-10-7-5-6-3-8v-7l4-10 9-8 6-2h7l11 4 23 13 19 11 15 9v-42l1-21 4-8 5-5 4-3 7-2 11 1 8 5 5 6 2 5 1 92 17 9 24 14 52 30 17 10 1 1v-128l-24-14-29-16-22-13-6-5-4-7-1-4v-8l4-9 5-5 6-4 3-1h8l11 4 22 12 23 13 5 3v-74l4-9 8-7z" fill="#232A6A"/>
</svg>
